<svg xmlns="http://www.w3.org/2000/svg" xmlns:xlink="http://www.w3.org/1999/xlink" width="500" zoomAndPan="magnify" viewBox="0 0 375 374.999991" height="500" preserveAspectRatio="xMidYMid meet" version="1.0"><defs><g/></defs><rect x="-37.5" width="450" fill="#ffffff" y="-37.499999" height="449.999989" fill-opacity="1"/><rect x="-37.5" width="450" fill="#ffffff" y="-37.499999" height="449.999989" fill-opacity="1"/><g fill="#0cc0df" fill-opacity="1"><g transform="translate(92.03312, 261.315854)"><g><path d="M -26.171875 -0.421875 L -23.40625 -2.46875 L -18.015625 4.828125 L -13.59375 1.5625 L -18.484375 -5.0625 L -15.734375 -7.09375 L -10.84375 -0.46875 L -4.046875 -5.484375 L -1.609375 -2.171875 L -18.34375 10.1875 Z M -26.171875 -0.421875 "/></g></g></g><g fill="#0cc0df" fill-opacity="1"><g transform="translate(82.719715, 249.037364)"><g><path d="M -1.265625 -2.390625 L -19.609375 7.390625 L -23.546875 0.015625 C -24.554688 -1.867188 -24.882812 -3.53125 -24.53125 -4.96875 C -24.175781 -6.40625 -23.226562 -7.535156 -21.6875 -8.359375 C -20.570312 -8.953125 -19.507812 -9.15625 -18.5 -8.96875 C -17.5 -8.78125 -16.507812 -8.222656 -15.53125 -7.296875 L -15.25 -7.4375 C -15.3125 -8.15625 -15.191406 -8.820312 -14.890625 -9.4375 C -14.585938 -10.050781 -14.035156 -10.78125 -13.234375 -11.625 L -8.734375 -16.359375 L -6.75 -12.640625 L -11.265625 -7.921875 C -11.722656 -7.441406 -12.039062 -7.003906 -12.21875 -6.609375 C -12.40625 -6.222656 -12.472656 -5.8125 -12.421875 -5.375 C -12.378906 -4.945312 -12.207031 -4.445312 -11.90625 -3.875 L -10.859375 -1.9375 L -3.203125 -6.015625 Z M -15.484375 -3.703125 C -16.421875 -5.460938 -17.710938 -5.90625 -19.359375 -5.03125 C -21.023438 -4.132812 -21.390625 -2.804688 -20.453125 -1.046875 L -18.6875 2.25 L -13.71875 -0.40625 Z M -15.484375 -3.703125 "/></g></g></g><g fill="#0cc0df" fill-opacity="1"><g transform="translate(74.077193, 233.423516)"><g><path d="M -3.296875 -10.859375 C -2.691406 -9.046875 -2.523438 -7.328125 -2.796875 -5.703125 C -3.078125 -4.078125 -3.847656 -2.617188 -5.109375 -1.328125 C -6.367188 -0.046875 -8.128906 0.96875 -10.390625 1.71875 C -12.648438 2.46875 -14.664062 2.703125 -16.4375 2.421875 C -18.21875 2.140625 -19.703125 1.429688 -20.890625 0.296875 C -22.085938 -0.835938 -22.988281 -2.3125 -23.59375 -4.125 C -24.1875 -5.9375 -24.347656 -7.648438 -24.078125 -9.265625 C -23.804688 -10.878906 -23.039062 -12.328125 -21.78125 -13.609375 C -20.519531 -14.898438 -18.757812 -15.921875 -16.5 -16.671875 C -14.238281 -17.421875 -12.210938 -17.65625 -10.421875 -17.375 C -8.640625 -17.101562 -7.15625 -16.398438 -5.96875 -15.265625 C -4.78125 -14.140625 -3.890625 -12.671875 -3.296875 -10.859375 Z M -6.671875 -9.734375 C -7.222656 -11.398438 -8.179688 -12.5 -9.546875 -13.03125 C -10.921875 -13.5625 -12.789062 -13.429688 -15.15625 -12.640625 C -17.507812 -11.859375 -19.082031 -10.84375 -19.875 -9.59375 C -20.664062 -8.351562 -20.785156 -6.898438 -20.234375 -5.234375 C -19.671875 -3.546875 -18.695312 -2.4375 -17.3125 -1.90625 C -15.9375 -1.382812 -14.070312 -1.515625 -11.71875 -2.296875 C -9.351562 -3.085938 -7.78125 -4.101562 -7 -5.34375 C -6.21875 -6.582031 -6.109375 -8.046875 -6.671875 -9.734375 Z M -6.671875 -9.734375 "/></g></g></g><g fill="#0cc0df" fill-opacity="1"><g transform="translate(67.330499, 213.616915)"><g><path d="M -0.921875 -6.625 L -0.375 -2.671875 L -20.96875 0.171875 L -21.609375 -4.5 L -9.5 -14.609375 L -9.59375 -14.96875 L -22.796875 -13.140625 L -23.34375 -17.0625 L -2.75 -19.90625 L -2.171875 -15.71875 L -15.140625 -5.03125 L -15.03125 -4.671875 Z M -0.921875 -6.625 "/></g></g></g><g fill="#0cc0df" fill-opacity="1"><g transform="translate(64.52478, 192.56452)"><g><path d="M -20.390625 -17.171875 L -16.9375 -17.09375 L -17.078125 -11.09375 L 0.265625 -10.671875 L 0.15625 -6.578125 L -17.1875 -7 L -17.328125 -0.984375 L -20.78125 -1.0625 Z M -20.390625 -17.171875 "/></g></g></g><g fill="#0cc0df" fill-opacity="1"><g transform="translate(64.78951, 176.689563)"><g><path d="M -7.890625 -8.21875 L -2.265625 -7.28125 L -0.625 -17.078125 L 2.765625 -16.515625 L 0.453125 -2.671875 L -20.0625 -6.109375 L -17.796875 -19.734375 L -14.40625 -19.15625 L -16 -9.578125 L -11.203125 -8.78125 L -9.8125 -17.15625 L -6.5 -16.59375 Z M -7.890625 -8.21875 "/></g></g></g><g fill="#0cc0df" fill-opacity="1"><g transform="translate(67.155929, 160.527163)"><g><path d="M 2.171875 -6.328125 L 0.875 -2.5625 L -18.796875 -9.296875 L -17.28125 -13.734375 L -1.890625 -17.3125 L -1.828125 -17.671875 L -14.453125 -22 L -13.171875 -25.75 L 6.5 -19.015625 L 5.140625 -15.015625 L -11.265625 -11.296875 L -11.3125 -10.9375 Z M 2.171875 -6.328125 "/></g></g></g><g fill="#0cc0df" fill-opacity="1"><g transform="translate(73.854107, 140.541007)"><g><path d="M -13.15625 -19.0625 C -11.507812 -22 -9.488281 -23.816406 -7.09375 -24.515625 C -4.695312 -25.222656 -2 -24.738281 1 -23.0625 C 4 -21.375 5.820312 -19.320312 6.46875 -16.90625 C 7.125 -14.5 6.628906 -11.828125 4.984375 -8.890625 L 1.328125 -2.359375 L -16.8125 -12.53125 Z M 1.859375 -10.375 C 2.898438 -12.226562 3.203125 -13.882812 2.765625 -15.34375 C 2.328125 -16.8125 1.046875 -18.144531 -1.078125 -19.34375 C -3.203125 -20.53125 -5 -20.925781 -6.46875 -20.53125 C -7.945312 -20.144531 -9.207031 -19.023438 -10.25 -17.171875 L -11.796875 -14.421875 L 0.3125 -7.625 Z M 1.859375 -10.375 "/></g></g></g><g fill="#0cc0df" fill-opacity="1"><g transform="translate(84.49299, 122.354604)"><g/></g></g><g fill="#0cc0df" fill-opacity="1"><g transform="translate(87.574096, 117.39213)"><g><path d="M 13.4375 -14.78125 L 10.515625 -11.578125 L 5.921875 -13.640625 L 0.5625 -7.734375 L 3.046875 -3.359375 L 0.203125 -0.234375 L -10.34375 -19.53125 L -6.796875 -23.4375 Z M -5.53125 -18.390625 L -1.25 -10.890625 L 2.59375 -15.125 L -5.296875 -18.65625 Z M -5.53125 -18.390625 "/></g></g></g><g fill="#0cc0df" fill-opacity="1"><g transform="translate(99.915057, 103.437059)"><g><path d="M 5.28125 -4.09375 L 2.140625 -1.65625 L -10.609375 -18.09375 L -6.890625 -20.96875 L 7.921875 -15.515625 L 8.1875 -15.78125 L 0 -26.328125 L 3.125 -28.75 L 15.875 -12.3125 L 12.546875 -9.734375 L -3.203125 -15.625 L -3.453125 -15.359375 Z M 5.28125 -4.09375 "/></g></g></g><g fill="#0cc0df" fill-opacity="1"><g transform="translate(116.492314, 90.41803)"><g><path d="M -0.515625 -23.15625 C 2.484375 -24.707031 5.171875 -25.113281 7.546875 -24.375 C 9.929688 -23.644531 11.914062 -21.753906 13.5 -18.703125 C 15.070312 -15.648438 15.472656 -12.9375 14.703125 -10.5625 C 13.929688 -8.195312 12.046875 -6.238281 9.046875 -4.6875 L 2.40625 -1.25 L -7.15625 -19.71875 Z M 7.25 -7.640625 C 9.144531 -8.617188 10.3125 -9.84375 10.75 -11.3125 C 11.1875 -12.78125 10.847656 -14.59375 9.734375 -16.75 C 8.609375 -18.914062 7.320312 -20.238281 5.875 -20.71875 C 4.425781 -21.207031 2.753906 -20.960938 0.859375 -19.984375 L -1.9375 -18.546875 L 4.453125 -6.203125 Z M 7.25 -7.640625 "/></g></g></g><g fill="#0cc0df" fill-opacity="1"><g transform="translate(135.373812, 81.066546)"><g/></g></g><g fill="#0cc0df" fill-opacity="1"><g transform="translate(140.671171, 78.611031)"><g><path d="M 2.625 -0.671875 L -2.546875 -20.8125 L 6.046875 -23.015625 C 7.285156 -23.335938 8.382812 -23.414062 9.34375 -23.25 C 10.300781 -23.082031 11.09375 -22.691406 11.71875 -22.078125 C 12.351562 -21.472656 12.796875 -20.679688 13.046875 -19.703125 C 13.273438 -18.804688 13.257812 -17.957031 13 -17.15625 C 12.738281 -16.363281 12.257812 -15.664062 11.5625 -15.0625 L 11.640625 -14.765625 C 12.992188 -14.765625 14.125 -14.414062 15.03125 -13.71875 C 15.945312 -13.03125 16.566406 -12.046875 16.890625 -10.765625 C 17.378906 -8.835938 17.175781 -7.195312 16.28125 -5.84375 C 15.394531 -4.5 13.804688 -3.535156 11.515625 -2.953125 Z M 7.28125 -14.78125 C 9.144531 -15.25 9.863281 -16.320312 9.4375 -18 C 9.21875 -18.851562 8.820312 -19.429688 8.25 -19.734375 C 7.6875 -20.035156 6.929688 -20.066406 5.984375 -19.828125 L 2.1875 -18.84375 L 3.484375 -13.796875 Z M 10.3125 -6.015625 C 12.507812 -6.578125 13.351562 -7.851562 12.84375 -9.84375 C 12.332031 -11.851562 10.976562 -12.578125 8.78125 -12.015625 L 4.25 -10.84375 L 5.78125 -4.84375 Z M 10.3125 -6.015625 "/></g></g></g><g fill="#0cc0df" fill-opacity="1"><g transform="translate(158.82732, 73.823502)"><g><path d="M 19.890625 -1.75 L 15.578125 -1.359375 L 13.609375 -6.015625 L 5.671875 -5.3125 L 4.515625 -0.390625 L 0.3125 -0.03125 L 5.65625 -21.375 L 10.921875 -21.828125 Z M 8.421875 -17.265625 L 6.46875 -8.84375 L 12.171875 -9.34375 L 8.765625 -17.296875 Z M 8.421875 -17.265625 "/></g></g></g><g fill="#0cc0df" fill-opacity="1"><g transform="translate(177.447917, 72.055861)"><g><path d="M 11.328125 1.171875 C 9.410156 1.023438 7.75 0.5 6.34375 -0.40625 C 4.945312 -1.320312 3.898438 -2.609375 3.203125 -4.265625 C 2.515625 -5.921875 2.257812 -7.914062 2.4375 -10.25 C 2.613281 -12.582031 3.171875 -14.507812 4.109375 -16.03125 C 5.046875 -17.5625 6.273438 -18.664062 7.796875 -19.34375 C 9.316406 -20.03125 11.035156 -20.300781 12.953125 -20.15625 C 14.941406 -20.007812 16.601562 -19.488281 17.9375 -18.59375 C 19.28125 -17.707031 20.1875 -16.445312 20.65625 -14.8125 L 17.53125 -13.21875 L 17.171875 -13.25 C 16.804688 -14.375 16.257812 -15.195312 15.53125 -15.71875 C 14.8125 -16.25 13.863281 -16.554688 12.6875 -16.640625 C 10.957031 -16.773438 9.566406 -16.304688 8.515625 -15.234375 C 7.460938 -14.160156 6.84375 -12.390625 6.65625 -9.921875 C 6.46875 -7.453125 6.8125 -5.609375 7.6875 -4.390625 C 8.5625 -3.179688 9.863281 -2.507812 11.59375 -2.375 C 14.28125 -2.175781 16.023438 -3.363281 16.828125 -5.9375 L 17.1875 -5.90625 L 20.078125 -4.109375 C 19.367188 -2.179688 18.289062 -0.78125 16.84375 0.09375 C 15.394531 0.976562 13.554688 1.335938 11.328125 1.171875 Z M 11.328125 1.171875 "/></g></g></g><g fill="#0cc0df" fill-opacity="1"><g transform="translate(196.264287, 73.419962)"><g><path d="M 2.625 0.625 L 7.484375 -19.59375 L 11.484375 -18.625 L 9.5 -10.375 L 9.9375 -10.265625 L 18.6875 -16.890625 L 22.765625 -15.90625 L 22.6875 -15.578125 L 13.03125 -8.15625 L 18.765625 4.15625 L 18.6875 4.5 L 14.171875 3.40625 L 9.15625 -7.03125 L 8.71875 -7.140625 L 6.625 1.59375 Z M 2.625 0.625 "/></g></g></g><g fill="#0cc0df" fill-opacity="1"><g transform="translate(213.561647, 77.52008)"><g><path d="M 9.75 -5.90625 L 7.609375 -0.625 L 16.8125 3.109375 L 15.515625 6.296875 L 2.5 1.015625 L 10.328125 -18.25 L 23.125 -13.0625 L 21.828125 -9.875 L 12.84375 -13.515625 L 11.015625 -9.015625 L 18.875 -5.828125 L 17.609375 -2.71875 Z M 9.75 -5.90625 "/></g></g></g><g fill="#0cc0df" fill-opacity="1"><g transform="translate(228.816682, 83.355786)"><g><path d="M 5.703125 3.5 L 2.3125 1.40625 L 13.171875 -16.328125 L 17.171875 -13.859375 L 17.3125 1.921875 L 17.65625 2.0625 L 24.625 -9.3125 L 28 -7.234375 L 17.140625 10.5 L 13.53125 8.296875 L 13.484375 -8.515625 L 13.140625 -8.65625 Z M 5.703125 3.5 "/></g></g></g><g fill="#0cc0df" fill-opacity="1"><g transform="translate(246.860607, 94.251431)"><g><path d="M 21.453125 -8.6875 C 23.972656 -6.425781 25.3125 -4.050781 25.46875 -1.5625 C 25.632812 0.914062 24.570312 3.4375 22.28125 6 C 19.976562 8.5625 17.582031 9.898438 15.09375 10.015625 C 12.601562 10.128906 10.097656 9.054688 7.578125 6.796875 L 2.015625 1.796875 L 15.890625 -13.6875 Z M 9.71875 4.0625 C 11.3125 5.488281 12.867188 6.144531 14.390625 6.03125 C 15.910156 5.925781 17.488281 4.96875 19.125 3.15625 C 20.75 1.34375 21.53125 -0.320312 21.46875 -1.84375 C 21.40625 -3.363281 20.578125 -4.835938 18.984375 -6.265625 L 16.65625 -8.359375 L 7.390625 1.96875 Z M 9.71875 4.0625 "/></g></g></g><g fill="#0cc0df" fill-opacity="1"><g transform="translate(262.291769, 108.598116)"><g/></g></g><g fill="#0cc0df" fill-opacity="1"><g transform="translate(266.486162, 112.57655)"><g><path d="M 22.890625 -3.453125 C 24.804688 -0.671875 25.554688 1.941406 25.140625 4.390625 C 24.722656 6.847656 23.101562 9.054688 20.28125 11.015625 C 17.445312 12.972656 14.800781 13.71875 12.34375 13.25 C 9.894531 12.78125 7.710938 11.15625 5.796875 8.375 L 1.53125 2.21875 L 18.625 -9.609375 Z M 8.5 6.21875 C 9.71875 7.96875 11.078125 8.96875 12.578125 9.21875 C 14.085938 9.46875 15.847656 8.898438 17.859375 7.515625 C 19.859375 6.128906 21.003906 4.6875 21.296875 3.1875 C 21.597656 1.6875 21.140625 0.0625 19.921875 -1.6875 L 18.140625 -4.265625 L 6.71875 3.640625 Z M 8.5 6.21875 "/></g></g></g><g fill="#0cc0df" fill-opacity="1"><g transform="translate(278.210044, 129.601407)"><g><path d="M 11.171875 2.234375 L 6.03125 4.6875 L 10.296875 13.65625 L 7.1875 15.125 L 1.15625 2.4375 L 19.9375 -6.484375 L 25.875 6 L 22.765625 7.46875 L 18.59375 -1.296875 L 14.21875 0.796875 L 17.859375 8.453125 L 14.8125 9.890625 Z M 11.171875 2.234375 "/></g></g></g><g fill="#0cc0df" fill-opacity="1"><g transform="translate(285.429475, 144.358371)"><g><path d="M 3.5625 11.828125 L 2.125 7.09375 L 20.03125 -5.625 L 21.28125 -1.453125 L 7.90625 7.84375 L 8 8.1875 L 24.28125 8.5 L 25.5 12.5625 Z M 3.5625 11.828125 "/></g></g></g><g fill="#0cc0df" fill-opacity="1"><g transform="translate(290.730319, 161.857844)"><g><path d="M 10 5.46875 L 4.359375 6.265625 L 5.75 16.09375 L 2.34375 16.578125 L 0.375 2.671875 L 20.96875 -0.234375 L 22.90625 13.453125 L 19.5 13.921875 L 18.140625 4.3125 L 13.328125 5 L 14.515625 13.390625 L 11.1875 13.859375 Z M 10 5.46875 "/></g></g></g><g fill="#0cc0df" fill-opacity="1"><g transform="translate(293.105433, 178.212338)"><g><path d="M 20.796875 6.796875 L 3.4375 6.8125 L 3.453125 16.15625 L 0.015625 16.15625 L 0 2.703125 L 20.796875 2.6875 Z M 20.796875 6.796875 "/></g></g></g><g fill="#0cc0df" fill-opacity="1"><g transform="translate(293.461965, 193.552518)"><g><path d="M -2.09375 11.15625 C -1.789062 9.269531 -1.140625 7.671875 -0.140625 6.359375 C 0.847656 5.046875 2.195312 4.109375 3.90625 3.546875 C 5.625 2.984375 7.660156 2.890625 10.015625 3.265625 C 12.359375 3.640625 14.253906 4.359375 15.703125 5.421875 C 17.148438 6.492188 18.140625 7.804688 18.671875 9.359375 C 19.210938 10.921875 19.332031 12.644531 19.03125 14.53125 C 18.726562 16.414062 18.082031 18.007812 17.09375 19.3125 C 16.113281 20.625 14.765625 21.554688 13.046875 22.109375 C 11.335938 22.671875 9.3125 22.765625 6.96875 22.390625 C 4.613281 22.015625 2.707031 21.289062 1.25 20.21875 C -0.207031 19.15625 -1.203125 17.847656 -1.734375 16.296875 C -2.273438 14.753906 -2.394531 13.039062 -2.09375 11.15625 Z M 1.421875 11.71875 C 1.148438 13.457031 1.5 14.875 2.46875 15.96875 C 3.445312 17.070312 5.164062 17.820312 7.625 18.21875 C 10.070312 18.613281 11.929688 18.4375 13.203125 17.6875 C 14.484375 16.945312 15.257812 15.707031 15.53125 13.96875 C 15.8125 12.207031 15.460938 10.773438 14.484375 9.671875 C 13.515625 8.578125 11.804688 7.832031 9.359375 7.4375 C 6.898438 7.039062 5.03125 7.210938 3.75 7.953125 C 2.476562 8.703125 1.703125 9.957031 1.421875 11.71875 Z M 1.421875 11.71875 "/></g></g></g><g fill="#0cc0df" fill-opacity="1"><g transform="translate(290.122897, 214.328676)"><g><path d="M 16.25 16.859375 C 15.769531 18.265625 15.101562 19.378906 14.25 20.203125 C 13.394531 21.035156 12.414062 21.546875 11.3125 21.734375 C 10.207031 21.929688 9.039062 21.820312 7.8125 21.40625 C 6.582031 20.988281 5.585938 20.367188 4.828125 19.546875 C 4.078125 18.722656 3.613281 17.722656 3.4375 16.546875 C 3.257812 15.367188 3.410156 14.078125 3.890625 12.671875 L 5.15625 8.9375 L -2.1875 6.453125 L -0.859375 2.5625 L 18.84375 9.234375 Z M 7.171875 13.203125 C 6.429688 15.359375 7.085938 16.785156 9.140625 17.484375 C 11.210938 18.179688 12.617188 17.453125 13.359375 15.296875 L 14.4375 12.078125 L 8.25 9.984375 Z M 7.171875 13.203125 "/></g></g></g><g fill="#0cc0df" fill-opacity="1"><g transform="translate(284.550136, 230.992486)"><g><path d="M 5.015625 10.25 L -0.046875 7.640625 L -4.59375 16.46875 L -7.65625 14.890625 L -1.234375 2.40625 L 17.265625 11.921875 L 10.9375 24.203125 L 7.875 22.625 L 12.328125 14 L 8 11.78125 L 4.109375 19.328125 L 1.125 17.796875 Z M 5.015625 10.25 "/></g></g></g><g fill="#0cc0df" fill-opacity="1"><g transform="translate(277.18225, 245.686564)"><g><path d="M -1.578125 2.1875 L 15.28125 14.359375 L 10.375 21.140625 C 9.125 22.878906 7.773438 23.90625 6.328125 24.21875 C 4.878906 24.53125 3.445312 24.175781 2.03125 23.15625 C 1.007812 22.414062 0.359375 21.550781 0.078125 20.5625 C -0.191406 19.570312 -0.125 18.4375 0.28125 17.15625 L 0.015625 16.96875 C -0.597656 17.332031 -1.242188 17.515625 -1.921875 17.515625 C -2.609375 17.523438 -3.507812 17.347656 -4.625 16.984375 L -10.859375 15.03125 L -8.390625 11.609375 L -2.15625 13.609375 C -1.53125 13.804688 -1 13.898438 -0.5625 13.890625 C -0.125 13.878906 0.273438 13.753906 0.640625 13.515625 C 1.003906 13.285156 1.375 12.910156 1.75 12.390625 L 3.046875 10.59375 L -3.984375 5.515625 Z M 3.484375 15.546875 C 2.316406 17.160156 2.488281 18.515625 4 19.609375 C 5.519531 20.710938 6.863281 20.457031 8.03125 18.84375 L 10.234375 15.796875 L 5.6875 12.5 Z M 3.484375 15.546875 "/></g></g></g></svg>